<?xml version="1.0" encoding="utf-8"?>
<!-- Generator: Adobe Illustrator 19.1.0, SVG Export Plug-In . SVG Version: 6.00 Build 0)  -->
<svg version="1.1" id="Layer_1" xmlns="http://www.w3.org/2000/svg" xmlns:xlink="http://www.w3.org/1999/xlink" x="0px" y="0px"
	 viewBox="0 0 325 250" style="enable-background:new 0 0 325 250;" xml:space="preserve">
<style type="text/css">
	.st0{fill:#FFFFFF;}
</style>
<g>
	<g>
		<polygon points="74.9,0 0,75.3 0,175.3 74.9,250 325,250 325,0 		"/>
	</g>
	<g>
		<g>
			<path class="st0" d="M282.7,173.2l-20.9,22.2c-3,3.2-4.7,7.4-4.7,11.7l0,12.2h-33.2l0-42.4c0-1.8,0.7-3.6,2-4.9l25.8-27.5
				c1.4-1.5,3.4-2.4,5.5-2.3c2,0.1,3.9,1.1,5,2.8c1.8,2.5,1.3,6.2-1,8.7l-12.8,13.7c-0.6,0.7-0.9,1.6-0.9,2.4
				c0.1,0.9,0.5,1.7,1.2,2.2c1.2,0.9,3.1,0.6,4.3-0.7l15.2-16.2c1.9-2,2.9-4.6,2.9-7.3l0-28.9c0-1.9,0.8-3.8,2.2-5.2
				c1.4-1.4,3.3-2.1,5.2-2.1c3.4,0.1,6.1,3,6.1,6.7l0,50C284.7,170.1,284,171.9,282.7,173.2z"/>
			<path class="st0" d="M238.5,36l22.2,20.9c3.2,3,7.4,4.7,11.7,4.7l12.2,0v33.2l-42.4,0c-1.8,0-3.6-0.7-4.9-2l-27.5-25.8
				c-1.5-1.4-2.4-3.4-2.3-5.5c0.1-2,1.1-3.9,2.8-5c2.5-1.8,6.2-1.3,8.7,1l13.7,12.8c0.7,0.6,1.6,0.9,2.4,0.9
				c0.9-0.1,1.7-0.5,2.2-1.2c0.9-1.2,0.6-3.1-0.7-4.3l-16.2-15.2c-2-1.9-4.6-2.9-7.3-2.9l-28.9,0c-1.9,0-3.8-0.8-5.2-2.2
				c-1.4-1.4-2.1-3.3-2.1-5.2c0.1-3.4,3-6.1,6.7-6.1l50,0C235.4,34,237.2,34.8,238.5,36z"/>
			<path class="st0" d="M101.3,80.2l20.9-22.2c3-3.2,4.7-7.4,4.7-11.7l0-12.2h33.2l0,42.4c0,1.8-0.7,3.6-2,4.9l-25.8,27.5
				c-1.4,1.5-3.4,2.4-5.5,2.3c-2-0.1-3.9-1.1-5-2.8c-1.8-2.5-1.3-6.2,1-8.7l12.8-13.7c0.6-0.7,0.9-1.6,0.9-2.4
				c-0.1-0.9-0.5-1.7-1.2-2.2c-1.2-0.9-3.1-0.6-4.3,0.7l-15.2,16.2c-1.9,2-2.9,4.6-2.9,7.3l0,28.9c0,1.9-0.8,3.8-2.2,5.2
				c-1.4,1.4-3.3,2.1-5.2,2.1c-3.4-0.1-6.1-3-6.1-6.7l0-50C99.4,83.3,100.1,81.5,101.3,80.2z"/>
			<path class="st0" d="M145.5,217.4l-22.2-20.9c-3.2-3-7.4-4.7-11.7-4.7l-12.2,0v-33.2l42.4,0c1.8,0,3.6,0.7,4.9,2l27.5,25.8
				c1.5,1.4,2.4,3.4,2.3,5.5c-0.1,2-1.1,3.9-2.8,5c-2.5,1.8-6.2,1.3-8.7-1L151.4,183c-0.7-0.6-1.6-0.9-2.4-0.9
				c-0.9,0.1-1.7,0.5-2.2,1.2c-0.9,1.2-0.6,3.1,0.7,4.3l16.2,15.2c2,1.9,4.6,2.9,7.3,2.9l28.9,0c1.9,0,3.8,0.8,5.2,2.2
				c1.4,1.4,2.1,3.3,2.1,5.2c-0.1,3.4-3,6.1-6.7,6.1l-50,0C148.6,219.4,146.9,218.7,145.5,217.4z"/>
		</g>
		<g>
			<polygon class="st0" points="159.7,146.5 188.1,162.9 188.1,130.1 159.7,113.7 			"/>
			<polygon class="st0" points="224.4,113.7 196,130.1 196,162.9 224.4,146.5 			"/>
			<polygon class="st0" points="220.4,106.9 192,90.5 163.6,106.9 192,123.3 			"/>
		</g>
	</g>
</g>
</svg>
