<?xml version="1.0" encoding="utf-8"?>
<!-- Generator: Adobe Illustrator 18.1.1, SVG Export Plug-In . SVG Version: 6.00 Build 0)  -->
<svg version="1.1" id="Layer_1" xmlns="http://www.w3.org/2000/svg" xmlns:xlink="http://www.w3.org/1999/xlink" x="0px" y="0px"
	 viewBox="0 0 325 250" enable-background="new 0 0 325 250" xml:space="preserve">
<g>
	<polygon points="75,0 0,75 0,175 75,250 325,250 325,0 	"/>
	<path fill-rule="evenodd" clip-rule="evenodd" fill="#FFFFFF" d="M257.9,141.6L204.3,120c-2.3-1.2-4.7-2.1-7.3-2.9l-13.4-5.4V81.8
		c4.1,1.1,7.9,2.9,10.4,5.5c2.9,3,5.4,7.9,5.5,12.1h22c-0.4-9.8-5.2-18.9-12.3-25.5c-6.6-6.1-15.5-9.8-25.5-11.1v-17h-13v16.6
		c-12,1.1-22,5.9-28.9,12.8c-4.5,4.4-8,9.5-9.7,15.5L92.5,75v31.8l78,31.4v30.9c-5.4-0.5-10.4-2.3-14.5-6.2c-3.7-3.6-6.4-8.9-6.6-15
		h-22c0.2,11.2,5.5,21.1,12.7,27.5c8.7,8,19.1,11.8,30.3,12.7v16.1h13v-16.2c11.6-1.2,21.8-5.5,29.1-13c4.2-4.3,7.5-9.4,9.1-16
		l36.1,14.5V141.6z M152.5,98.4c0-4.6,2-8.6,4.8-11.2c3.6-3.4,8.4-5.2,13.2-5.9v25.1l-18-7.2C152.6,98.9,152.5,98.7,152.5,98.4z
		 M201.2,150.7c0,5.9-2.1,9.5-5,12.3c-3.2,3.2-7.5,5-12.7,5.9v-25.5l17.7,7.1C201.2,150.6,201.2,150.6,201.2,150.7z"/>
</g>
</svg>
