<svg xmlns="http://www.w3.org/2000/svg" viewBox="0 0 325 250"><title>LC-Label-</title><g id="Content"><path d="M75,0,0,75V175l75,75H325V0ZM268.76,217.24l-45.53-45.52c-5.88,7.1-14.81,11.77-25.52,13.56V205H176.16V185.28c-19.93-3.25-33.55-15.45-37-35h25.2c3.46,10.37,11.8,15.05,23.18,15.05,10,0,16.78-3.93,18.48-10.86l-18.38-18.38-16-3.9c-16.46-3.87-29.68-13-29.68-33.14a37,37,0,0,1,.81-7.78l-50-50.06,8.48-8.48L147.89,79.4c5.86-8.55,15.78-14.29,28.27-15.9V45h21.55V64.31c17.89,4.07,28.46,16.07,31.91,32.74H205.43c-2.64-7.73-9.55-13.63-21.55-13.63-10.77,0-17.69,5.49-17.69,13.83,0,.16,0,.32,0,.48l12.35,12.35.65.18,21.14,5.08c18.91,4.68,30.49,15.86,30.49,34.16a37.26,37.26,0,0,1-1.65,11.21l48.05,48Z"/></g></svg>