<?xml version="1.0" encoding="utf-8"?>
<!-- Generator: Adobe Illustrator 18.1.1, SVG Export Plug-In . SVG Version: 6.00 Build 0)  -->
<svg version="1.1" id="Layer_1" xmlns="http://www.w3.org/2000/svg" xmlns:xlink="http://www.w3.org/1999/xlink" x="0px" y="0px"
	 viewBox="0 0 325 250" enable-background="new 0 0 325 250" xml:space="preserve">
<g>
	<polygon points="75,0 0,75 0,175 75,250 325,250 325,0 	"/>
	<g>
		<path fill="#FFFFFF" d="M212.7,174.8c-7.3,7.5-17.5,11.8-29.1,13v16.2h-13V188c-11.2-0.9-21.6-4.6-30.3-12.7
			c-7.1-6.4-12.5-16.2-12.7-27.5h22c0.2,6.1,2.9,11.4,6.6,15c4.1,3.9,9.1,5.7,14.5,6.2v-35.3c-2.9-0.4-5.9-0.7-8.7-1.2
			c-19.3-3-31.1-15.3-31.1-33.6c0-9.5,4.5-17.3,10.9-23.6c7-7,17-11.8,28.9-12.8V45.9h13v17c10,1.2,18.9,5,25.5,11.1
			c7.1,6.6,12,15.7,12.3,25.5h-22c-0.2-4.3-2.7-9.1-5.5-12.1c-2.5-2.7-6.2-4.5-10.4-5.5v32.7c2,0.4,4.1,0.5,6.1,0.9
			c18.2,2.9,33.2,14.3,33.2,34.4C222.8,161,218.6,168.7,212.7,174.8z M170.6,81.3c-4.8,0.7-9.6,2.5-13.2,5.9
			c-2.9,2.7-4.8,6.6-4.8,11.2c0,8.2,5.2,12.1,12.7,13.4c1.8,0.4,3.6,0.7,5.4,0.9V81.3z M186.6,136.2l-3-0.5v33.2
			c5.2-0.9,9.5-2.7,12.7-5.9c2.9-2.9,5-6.4,5-12.3C201.2,141.6,194.3,137.7,186.6,136.2z"/>
	</g>
</g>
</svg>
