<svg xmlns="http://www.w3.org/2000/svg" viewBox="0 0 325 250"><title>LC-Label-</title><g id="Content"><path d="M75,0,0,75V175l75,75H325V0ZM197.7,185.31V205H176.15V185.31c-19.93-3.26-33.55-15.45-37-35h25.21c3.45,10.37,11.79,15,23.17,15,11.59,0,18.91-5.28,18.91-14.43,0-7.52-4.27-11.39-14.84-13.83l-19.92-4.88c-16.47-3.86-29.69-13-29.69-33.13,0-19.11,13.62-32.94,34.16-35.58V45H197.7V64.34c17.89,4.07,28.46,16.06,31.92,32.73h-24.2c-2.64-7.72-9.55-13.62-21.55-13.62-10.77,0-17.68,5.49-17.68,13.83,0,6.91,4.47,10.77,13,13l21.14,5.08c18.91,4.68,30.5,15.86,30.5,34.15C230.84,169.25,217.22,182.05,197.7,185.31Z"/></g></svg>