<svg xmlns="http://www.w3.org/2000/svg" viewBox="0 0 325 250"><title>LC-Label-</title><g id="Content"><path d="M75,0,0,75V175l75,75H325V0ZM247.37,36.93A6.09,6.09,0,1,1,256,45.55h0L234.44,67.09l-8.61-8.61,21.54-21.55Zm25.85,51.7a6.09,6.09,0,0,1-8.61,0L243.05,67.09l8.62-8.62L273.22,80h0A6.1,6.1,0,0,1,273.22,88.63Zm-51.7,55.5a6.09,6.09,0,0,1,8.61,0l4.31,4.3-8.61,8.62-4.31-4.31A6.1,6.1,0,0,1,221.52,144.13Zm0-46.88,21.54-21.54,8.61,8.61-21.54,21.55a6.09,6.09,0,1,1-8.61-8.62Zm25.85,46.89h0a6.09,6.09,0,0,1,8.61,8.62h0l-21.54,21.54-8.61-8.61ZM256,105.87a6.1,6.1,0,0,1-8.61,0l-4.31-4.31,8.61-8.62L256,97.25A6.1,6.1,0,0,1,256,105.87ZM221.52,36.93a6.08,6.08,0,0,1,8.61,0l4.31,4.31-8.61,8.62-4.31-4.31A6.1,6.1,0,0,1,221.52,36.93ZM204.28,54.17a6.1,6.1,0,0,1,8.62,0l21.54,21.54-8.61,8.61L204.28,62.78A6.1,6.1,0,0,1,204.28,54.17Zm0,25.85,4.31-4.31,8.62,8.61-4.31,4.31A6.09,6.09,0,0,1,204.28,80Zm0,81.35a6.1,6.1,0,0,1,8.62,0l21.54,21.54-8.61,8.62L204.28,170A6.1,6.1,0,0,1,204.28,161.37ZM139.87,36.93a6.09,6.09,0,1,1,8.61,8.62h0L126.94,67.09l-8.61-8.61,21.54-21.55Zm25.85,51.7a6.09,6.09,0,0,1-8.61,0L135.55,67.09l8.62-8.62L165.72,80h0A6.1,6.1,0,0,1,165.72,88.63ZM114,144.13a6.09,6.09,0,0,1,8.61,0l4.31,4.3-8.61,8.62L114,152.75A6.1,6.1,0,0,1,114,144.13Zm0-46.88,21.54-21.54,8.61,8.61-21.54,21.55A6.09,6.09,0,1,1,114,97.25Zm25.85,46.89h0a6.09,6.09,0,0,1,8.61,8.62h0l-21.54,21.54-8.61-8.61Zm8.61-38.27a6.1,6.1,0,0,1-8.61,0l-4.31-4.31,8.61-8.62,4.31,4.31A6.1,6.1,0,0,1,148.48,105.87ZM114,36.93a6.08,6.08,0,0,1,8.61,0l4.31,4.31-8.61,8.62L114,45.55A6.1,6.1,0,0,1,114,36.93ZM96.78,54.17a6.1,6.1,0,0,1,8.62,0l21.54,21.54-8.61,8.61L96.78,62.78A6.1,6.1,0,0,1,96.78,54.17Zm0,25.85,4.31-4.31,8.62,8.61-4.31,4.31A6.09,6.09,0,0,1,96.78,80Zm0,81.35a6.1,6.1,0,0,1,8.62,0l21.54,21.54-8.61,8.62L96.78,170A6.1,6.1,0,0,1,96.78,161.37Zm8.62,34.46a6.09,6.09,0,0,1-8.62-8.61l4.31-4.31,8.62,8.62ZM114,213.07a6.1,6.1,0,0,1,0-8.62l21.54-21.54,8.61,8.62-21.54,21.54A6.08,6.08,0,0,1,114,213.07Zm34.46,0a6.08,6.08,0,0,1-8.61,0l-4.31-4.31,8.61-8.62,4.31,4.31A6.1,6.1,0,0,1,148.48,213.07Zm17.24-17.24a6.09,6.09,0,0,1-8.61,0l-21.56-21.55,8.62-8.62,21.55,21.55h0A6.1,6.1,0,0,1,165.72,195.83Zm0-25.85-4.31,4.31-8.62-8.61,4.31-4.31a6.09,6.09,0,0,1,8.62,8.61Zm0-107.2-4.31,4.31-8.62-8.61,4.31-4.31a6.09,6.09,0,0,1,8.62,8.61ZM212.9,195.83a6.09,6.09,0,0,1-8.62-8.61l4.31-4.31,8.62,8.62Zm8.62,17.24a6.1,6.1,0,0,1,0-8.62l21.54-21.54,8.61,8.62-21.54,21.54A6.08,6.08,0,0,1,221.52,213.07Zm34.46,0a6.08,6.08,0,0,1-8.61,0l-4.31-4.31,8.61-8.62,4.31,4.31A6.1,6.1,0,0,1,256,213.07Zm17.24-17.24a6.09,6.09,0,0,1-8.61,0l-21.56-21.55,8.62-8.62,21.55,21.55h0A6.1,6.1,0,0,1,273.22,195.83Zm0-25.85-4.31,4.31-8.62-8.61,4.31-4.31a6.09,6.09,0,0,1,8.62,8.61Zm0-107.2-4.31,4.31-8.62-8.61,4.31-4.31a6.09,6.09,0,0,1,8.62,8.61Z"/></g></svg>