<?xml version="1.0" encoding="utf-8"?>
<!-- Generator: Adobe Illustrator 19.1.0, SVG Export Plug-In . SVG Version: 6.00 Build 0)  -->
<svg version="1.1" id="Layer_1" xmlns="http://www.w3.org/2000/svg" xmlns:xlink="http://www.w3.org/1999/xlink" x="0px" y="0px"
	 viewBox="0 0 325 250" style="enable-background:new 0 0 325 250;" xml:space="preserve">
<style type="text/css">
	.st0{fill:#FFFFFF;}
</style>
<g>
	<polygon points="74.9,0 0,74.9 0,174.9 74.9,250 325,250 325,0 	"/>
	<g>
		<circle class="st0" cx="252.7" cy="137.2" r="12.5"/>
		<path class="st0" d="M252.7,149.6c-13.8,0-25,11.2-25,25v37.5h50v-37.5C277.7,160.8,266.5,149.6,252.7,149.6z"/>
		<circle class="st0" cx="127.8" cy="162.1" r="12.5"/>
		<path class="st0" d="M127.8,174.6c-13.8,0-25,11.2-25,25v12.5h50v-12.5C152.8,185.8,141.6,174.6,127.8,174.6z"/>
		<circle class="st0" cx="190.3" cy="187.1" r="12.5"/>
		<g>
			<path class="st0" d="M276.2,37.2h-84.5c-7.7,0-14,6.3-14,14v11.1c6.9,0.4,12.5,6.1,12.5,13.1v24.2c0.5,0.1,1,0.1,1.5,0.1h61v12.5
				l12.5-12.5h11c7.7,0,14-6.3,14-14V51.2C290.2,43.5,283.9,37.2,276.2,37.2z"/>
			<path class="st0" d="M177.8,85.7V62.3c-0.2,0-0.4-0.1-0.7-0.1h-73.6c-7.2,0-13.2,5.9-13.2,13.2v36.1c0,7.2,5.9,13.2,13.2,13.2
				h11.8l12.5,12.5v-12.5h25v-2.4c0-5.6,4.6-10.1,10.1-10.1h27.3c0-0.2,0.1-0.4,0.1-0.7V99.6C183.3,98.9,177.8,92.9,177.8,85.7z"/>
			<path class="st0" d="M177.1,124.7h-24.3v14.9c0,5.6,4.6,10.1,10.1,10.1h14.9l12.5,12.5v-12.5h27.3c5.6,0,10.1-4.6,10.1-10.1
				v-17.2c0-5.6-4.6-10.1-10.1-10.1h-27.4C189.8,119.1,184.1,124.7,177.1,124.7z"/>
		</g>
		<path class="st0" d="M211.9,212.1c-4.3-7.5-12.4-12.5-21.6-12.5s-17.3,5-21.6,12.5H211.9z"/>
	</g>
</g>
</svg>
