<?xml version="1.0" encoding="utf-8"?>
<!-- Generator: Adobe Illustrator 18.1.1, SVG Export Plug-In . SVG Version: 6.00 Build 0)  -->
<svg version="1.1" id="Layer_1" xmlns="http://www.w3.org/2000/svg" xmlns:xlink="http://www.w3.org/1999/xlink" x="0px" y="0px"
	 viewBox="0 0 325 250" enable-background="new 0 0 325 250" xml:space="preserve">
<g>
	<polygon points="75,0 0,75 0,175 75,250 325,250 325,0 	"/>
	<g>
		<path fill="#FFFFFF" d="M115.5,101.7c13.9,0,25.2-11.3,25.2-25.2c0-13.9-11.3-25.2-25.2-25.2c-13.9,0-25.2,11.3-25.2,25.2
			C90.3,90.4,101.6,101.7,115.5,101.7z"/>
		<polygon fill="#FFFFFF" points="130.6,175.9 106.6,157.6 130.6,139.2 130.6,150.2 158.4,150.2 158.4,105.7 72.6,105.7 72.6,198.7 
			158.4,198.7 158.4,164.9 130.6,164.9 		"/>
		<circle fill="#FFFFFF" cx="234.5" cy="76.5" r="25.2"/>
		<polygon fill="#FFFFFF" points="191.6,105.7 191.6,150.2 219.4,150.2 219.4,139.2 243.4,157.6 219.4,175.9 219.4,164.9 
			191.6,164.9 191.6,198.7 277.4,198.7 277.4,105.7 		"/>
		<rect x="158.4" y="150.2" fill="#FFFFFF" width="33.2" height="14.7"/>
	</g>
</g>
</svg>
