<svg xmlns="http://www.w3.org/2000/svg" viewBox="0 0 325 250"><title>LC-Label-</title><g id="Content"><path d="M75,0,0,75V175l75,75H325V0ZM253.13,63a16.63,16.63,0,1,1-16.6,16.62A16.62,16.62,0,0,1,253.13,63Zm17.41,43.29a5,5,0,1,1-5-5A5,5,0,0,1,270.54,106.32ZM231.65,54.6a5,5,0,1,1-5,5A5,5,0,0,1,231.65,54.6ZM119.38,91.12a5,5,0,1,1-5,5A5,5,0,0,1,119.38,91.12ZM97.17,125a16.61,16.61,0,1,1,16.61,16.63A16.63,16.63,0,0,1,97.17,125Zm22.21,33.87a5,5,0,1,1,5-5A5,5,0,0,1,119.38,158.87Zm9.11,16.46a5,5,0,1,1,5-5A5,5,0,0,1,128.49,175.33Zm0-90.69a5,5,0,1,1,5-5A5,5,0,0,1,128.49,84.64Zm12.82,104.25a5,5,0,1,1,5-5A5,5,0,0,1,141.31,188.89Zm0-118a5,5,0,1,1,5-5A5,5,0,0,1,141.31,70.87ZM167,215a16.63,16.63,0,1,1,16.6-16.63A16.62,16.62,0,0,1,167,215Zm0-146.75a16.63,16.63,0,1,1,16.6-16.62A16.62,16.62,0,0,1,167,68.25ZM196.16,207a5,5,0,1,1,5-5A5,5,0,0,1,196.16,207Zm0-153.92a5,5,0,1,1,5-5A5,5,0,0,1,196.17,53Zm18.45,150.33a5,5,0,1,1,5-5A5,5,0,0,1,214.62,203.36Zm0-146.75a5,5,0,1,1,5-5A5,5,0,0,1,214.62,56.61Zm17,138.8a5,5,0,1,1,5-5A5,5,0,0,1,231.64,195.41ZM253.13,187a16.63,16.63,0,1,1,16.61-16.62A16.61,16.61,0,0,1,253.13,187Zm12.42-38.3a5,5,0,1,1,5-5A5,5,0,0,1,265.55,148.67Zm2.3-18.68a5,5,0,1,1,5-5A5,5,0,0,1,267.85,130Z"/></g></svg>