<?xml version="1.0" encoding="utf-8"?>
<!-- Generator: Adobe Illustrator 18.1.1, SVG Export Plug-In . SVG Version: 6.00 Build 0)  -->
<svg version="1.1" id="Layer_1" xmlns="http://www.w3.org/2000/svg" xmlns:xlink="http://www.w3.org/1999/xlink" x="0px" y="0px"
	 viewBox="0 0 325 250" enable-background="new 0 0 325 250" xml:space="preserve">
<g>
	<polygon points="75.4,0 0,75 0,175 75.4,250 325,250 325,0 	"/>
	<g>
		<ellipse fill="#FFFFFF" cx="256.9" cy="77.8" rx="17.3" ry="17.3"/>
		<ellipse fill="#FFFFFF" cx="167.2" cy="48.6" rx="17.3" ry="17.3"/>
		<ellipse fill="#FFFFFF" cx="216.8" cy="48.6" rx="5.2" ry="5.2"/>
		<ellipse fill="#FFFFFF" cx="197.6" cy="44.8" rx="5.2" ry="5.2"/>
		<ellipse fill="#FFFFFF" cx="272.3" cy="125" rx="5.2" ry="5.2"/>
		<ellipse fill="#FFFFFF" cx="216.8" cy="201.4" rx="5.2" ry="5.2"/>
		<ellipse fill="#FFFFFF" cx="127.1" cy="172.2" rx="5.2" ry="5.2"/>
		<ellipse fill="#FFFFFF" cx="111.8" cy="125" rx="17.3" ry="17.3"/>
		<ellipse fill="#FFFFFF" cx="127.1" cy="77.8" rx="5.2" ry="5.2"/>
		<ellipse fill="#FFFFFF" cx="117.6" cy="94.9" rx="5.2" ry="5.2"/>
		<ellipse fill="#FFFFFF" cx="140.5" cy="186.4" rx="5.2" ry="5.2"/>
		<ellipse fill="#FFFFFF" cx="234.6" cy="193.1" rx="5.2" ry="5.2"/>
		<ellipse fill="#FFFFFF" cx="269.9" cy="105.5" rx="5.2" ry="5.2"/>
		<ellipse fill="#FFFFFF" cx="140.5" cy="63.4" rx="5.2" ry="5.2"/>
		<ellipse fill="#FFFFFF" cx="234.6" cy="56.9" rx="5.2" ry="5.2"/>
		<ellipse fill="#FFFFFF" cx="269.9" cy="144.5" rx="5.2" ry="5.2"/>
		<ellipse fill="#FFFFFF" cx="197.6" cy="205.2" rx="5.2" ry="5.2"/>
		<ellipse fill="#FFFFFF" cx="117.6" cy="155.1" rx="5.2" ry="5.2"/>
		<ellipse fill="#FFFFFF" cx="167.2" cy="201.4" rx="17.3" ry="17.3"/>
		<ellipse fill="#FFFFFF" cx="256.9" cy="172.2" rx="17.3" ry="17.3"/>
	</g>
</g>
</svg>
