<?xml version="1.0" encoding="utf-8"?>
<!-- Generator: Adobe Illustrator 18.1.1, SVG Export Plug-In . SVG Version: 6.00 Build 0)  -->
<svg version="1.1" id="Layer_1" xmlns="http://www.w3.org/2000/svg" xmlns:xlink="http://www.w3.org/1999/xlink" x="0px" y="0px"
	 viewBox="0 0 325 250" enable-background="new 0 0 325 250" xml:space="preserve">
<g>
	<polygon points="75,0 0,75 0,175 75,250 325,250 325,0 	"/>
	<g>
		<path fill-rule="evenodd" clip-rule="evenodd" fill="#FFFFFF" d="M263.2,145.8l-52-52l-20.8,20.8l52,52c5.7,5.7,15,5.7,20.8,0
			C268.9,160.9,268.9,151.6,263.2,145.8L263.2,145.8z"/>
		<path fill-rule="evenodd" clip-rule="evenodd" fill="#FFFFFF" d="M169.6,114.6l52-52h0c5.7-5.7,5.7-15.1,0-20.8
			c-5.7-5.7-15.1-5.7-20.8,0l0,0l-52,52L169.6,114.6z"/>
		<path fill-rule="evenodd" clip-rule="evenodd" fill="#FFFFFF" d="M263.2,104.2c5.7-5.7,5.7-15.1,0-20.8c-5.7-5.7-15.1-5.7-20.8,0
			L232,93.8l20.8,20.8L263.2,104.2z"/>
		<path fill-rule="evenodd" clip-rule="evenodd" fill="#FFFFFF" d="M190.4,135.4l-52,52c-5.7,5.7-5.7,15.1,0,20.8
			c5.7,5.7,15.1,5.7,20.8,0l52-52L190.4,135.4z"/>
		<path fill-rule="evenodd" clip-rule="evenodd" fill="#FFFFFF" d="M96.8,145.8c-5.7,5.7-5.7,15.1,0,20.8c5.7,5.7,15.1,5.7,20.8,0
			l10.4-10.4l-20.8-20.8L96.8,145.8z"/>
		<path fill-rule="evenodd" clip-rule="evenodd" fill="#FFFFFF" d="M148.8,156.2l20.8-20.8l-52-52c-5.7-5.7-15.1-5.7-20.8,0
			c-5.7,5.7-5.7,15.1,0,20.8L148.8,156.2z"/>
		<path fill-rule="evenodd" clip-rule="evenodd" fill="#FFFFFF" d="M148.8,73l20.8-20.8l-10.4-10.4c-5.7-5.7-15.1-5.7-20.8,0
			c-5.7,5.7-5.7,15.1,0,20.8L148.8,73z"/>
		<path fill-rule="evenodd" clip-rule="evenodd" fill="#FFFFFF" d="M211.2,177l-20.8,20.8l10.4,10.4c5.7,5.7,15.1,5.7,20.8,0
			c5.7-5.7,5.7-15.1,0-20.8L211.2,177z"/>
	</g>
</g>
</svg>
