<svg xmlns="http://www.w3.org/2000/svg" viewBox="0 0 325 250"><title>LC-Label-</title><g id="Content"><path d="M75,0,0,75V175l75,75H325V0ZM204,48.94a13.44,13.44,0,1,1,19,19h0l-47.54,47.54-19-19L204,48.94Zm-57.05,0a13.44,13.44,0,0,1,19,0l9.51,9.51-19,19L147,68A13.44,13.44,0,0,1,147,48.94Zm-38,38a13.44,13.44,0,0,1,19,0l47.54,47.54-19,19L108.94,106A13.45,13.45,0,0,1,108.94,87ZM128,163a13.44,13.44,0,1,1-19-19l9.51-9.51,19,19Zm19,38a13.44,13.44,0,0,1,0-19l47.54-47.54,19,19L166,201.06A13.44,13.44,0,0,1,147,201.06Zm76.06,0a13.44,13.44,0,0,1-19,0l-9.51-9.51,19-19,9.51,9.51A13.44,13.44,0,0,1,223,201.06Zm38-38a13.44,13.44,0,0,1-19,0l-47.57-47.56,19-19L261.08,144h0A13.44,13.44,0,0,1,261.06,163Zm0-57-9.51,9.5-19-19L242.05,87a13.45,13.45,0,1,1,19,19Z"/></g></svg>