<?xml version="1.0" encoding="utf-8"?>
<!-- Generator: Adobe Illustrator 18.1.1, SVG Export Plug-In . SVG Version: 6.00 Build 0)  -->
<svg version="1.1" id="Layer_1" xmlns="http://www.w3.org/2000/svg" xmlns:xlink="http://www.w3.org/1999/xlink" x="0px" y="0px"
	 viewBox="0 0 325 250" enable-background="new 0 0 325 250" xml:space="preserve">
<g>
	<polygon points="75.4,0 0,75.3 0,175.3 75.4,250 325,250 325,0 	"/>
	<g>
		<path fill="#FFFFFF" d="M160.4,110.3c-1.2-1.2-2.9-1.2-4,0L108,158.9v-27.4l34.7-34.9c1.2-1.2,1.1-3.1-0.1-4.2
			c-1.2-1.2-2.9-1.2-4.1,0L108,123.1V95.7l16.8-17c1.2-1.2,1.1-3.1-0.1-4.2c-1.2-1.2-2.9-1.2-4.1,0L108,87.3V58.7c0-1.6-1.4-3-3-3
			s-3,1.3-3,3v28.6L89.1,74.5c-1.2-1.2-3.1-1.2-4.3,0c-1.2,1.2-1.1,3.1,0.1,4.2l17.1,17v27.4L71.2,92.4c-1.2-1.2-3.1-1.2-4.3,0
			c-1.2,1.2-1.1,3.1,0.1,4.2l35,34.9v27.4l-48.7-48.6c-1.2-1.2-3.1-1.2-4.3,0c-1.2,1.2-1.1,3.1,0.1,4.2l52.9,52.9V202
			c0,1.6,1.4,3,3,3s3-1.3,3-3v-34.6l52.6-52.9C161.8,113.4,161.6,111.5,160.4,110.3z"/>
		<path fill="#FFFFFF" d="M238,175V202c0,1.6,1.4,3,3,3s3-1.3,3-3V175c-2,0-2,0.1-3,0.1S239,175.1,238,175z"/>
		<g>
			<g>
				<path fill="#FFFFFF" d="M240.8,175.1c-0.9,0-1.8,0-2.7-0.1C239,175.1,239.9,175.1,240.8,175.1z"/>
			</g>
			<g>
				<path fill="#FFFFFF" d="M240.8,58.7c-32.1,0-58,26.1-58,58.2c0,31.1,24.2,56.6,55.2,58.1v-7.6l-35-34.9c-1.2-1.2-1.2-3.1,0-4.2
					c1.2-1.2,3.1-1.2,4.3,0l30.7,30.7v-27.4l-17.1-17c-1.2-1.2-1.2-3.1,0-4.2c1.2-1.2,3.1-1.2,4.3,0l12.9,12.8V99c0-1.6,1.4-3,3-3
					s3,1.3,3,3v24.1l12.7-12.8c1.2-1.2,3-1.2,4.2,0c1.2,1.2,1.2,3.1,0.1,4.2l-16.9,17v27.4l30.6-30.7c1.2-1.2,3-1.2,4.2,0
					c1.2,1.2,1.2,3.1,0.1,4.2L244,167.4v7.6c30-1.6,55-27,55-58.1C299,84.7,272.9,58.7,240.8,58.7z"/>
			</g>
			<g>
				<path fill="#FFFFFF" d="M240.8,175.1c0.9,0,1.8,0,2.7-0.1C242.6,175.1,241.7,175.1,240.8,175.1z"/>
			</g>
		</g>
	</g>
</g>
</svg>
