<svg xmlns="http://www.w3.org/2000/svg" viewBox="0 0 325 250"><title>LC-Label-</title><g id="Content"><path d="M75,0,0,75V175l75,75H325V0Zm87.26,109.12-52.69,53.12V197c0,1.66-1.76,3-3.42,3s-3.42-1.34-3.42-3V162.24l-53-53.12a3,3,0,0,1,0-4.24,3,3,0,0,1,4.2,0l48.73,48.88V126.24l-35-35.12a3,3,0,0,1,0-4.24,3,3,0,0,1,4.2,0l30.76,30.88V90.24l-17-17.12a3,3,0,0,1,.06-4.24,3,3,0,0,1,4.2,0l12.78,12.88V53c0-1.66,1.77-3,3.42-3s3.42,1.34,3.42,3V81.76l12.6-12.88a2.68,2.68,0,0,1,4,0,3,3,0,0,1,.18,4.24L109.57,90.24v27.52l30.57-30.88a2.7,2.7,0,0,1,4,0,3,3,0,0,1,.17,4.24l-34.72,35.12v27.52L158,104.88a2.59,2.59,0,0,1,3.89,0A3,3,0,0,1,162.26,109.12ZM246.33,197c0,1.66-1.76,3-3.42,3s-3.42-1.34-3.42-3V169.92c2.28.05,2.42.08,3.42.08s1.14,0,3.42-.08Zm-.66-27.08v-7.68l35.07-35.12a3,3,0,0,0-4.24-4.24l-30.83,30.88V126.24l17.1-17.12a3,3,0,0,0-4.24-4.24l-12.86,12.88V93.5a3,3,0,1,0-6,0v24.26l-12.86-12.88a3,3,0,1,0-4.24,4.24l17.1,17.12v27.52l-30.83-30.88a3,3,0,0,0-4.24,4.24l35.07,35.12v7.68a58.42,58.42,0,1,1,6,0Z"/></g></svg>