<?xml version="1.0" encoding="utf-8"?>
<!-- Generator: Adobe Illustrator 24.0.0, SVG Export Plug-In . SVG Version: 6.00 Build 0)  -->
<svg version="1.1" id="Layer_1" xmlns="http://www.w3.org/2000/svg" xmlns:xlink="http://www.w3.org/1999/xlink" x="0px" y="0px"
	 viewBox="0 0 325 250" style="enable-background:new 0 0 325 250;" xml:space="preserve">
<style type="text/css">
	.st0{fill:#FFFFFF;stroke:#000000;stroke-miterlimit:10;}
</style>
<title>LC-Label-Clan</title>
<rect x="79" y="14" class="st0" width="219" height="212"/>
<g id="Content">
	<path d="M75,0L0,75v100l75,75h250V0H75z M262.8,93.2c3.3-1.1,6.8,0.7,7.8,4c1.1,3.3-0.7,6.8-4,7.8c-0.6,0.2-1.3,0.3-1.9,0.3
		c-3.4,0-6.2-2.8-6.2-6.2C258.6,96.4,260.3,94.1,262.8,93.2L262.8,93.2z M249.2,70.7c2.8-2,6.6-1.4,8.6,1.4c2,2.8,1.4,6.6-1.4,8.6
		c-2.8,2-6.6,1.4-8.6-1.4C245.8,76.6,246.4,72.7,249.2,70.7z M99.4,97.2c1.1-3.2,4.5-5,7.8-4s5,4.5,4,7.8c-0.8,2.5-3.2,4.3-5.9,4.3
		c-0.6,0-1.3-0.1-1.9-0.3C100.1,103.9,98.3,100.4,99.4,97.2L99.4,97.2z M98.3,130.4c-0.2-0.1-0.4-0.2-0.5-0.3
		c-0.2-0.1-0.3-0.2-0.5-0.4c-0.2-0.1-0.3-0.3-0.4-0.4c-0.1-0.1-0.3-0.3-0.4-0.4c-0.1-0.2-0.2-0.3-0.4-0.5s-0.2-0.3-0.3-0.5
		s-0.2-0.4-0.3-0.5s-0.1-0.4-0.2-0.6s-0.1-0.4-0.2-0.6c0-0.2-0.1-0.4-0.1-0.6s0-0.4,0-0.6s0-0.4,0-0.6s0-0.4,0.1-0.6
		s0.1-0.4,0.2-0.6s0.1-0.4,0.2-0.6s0.2-0.4,0.3-0.5s0.2-0.4,0.3-0.5s0.2-0.3,0.4-0.5c0.1-0.2,0.3-0.3,0.4-0.4s0.3-0.3,0.4-0.4
		c0.2-0.1,0.3-0.2,0.5-0.4c0.2-0.1,0.3-0.2,0.5-0.3l0.6-0.3c0.2-0.1,0.4-0.2,0.6-0.2l0.6-0.1c0.2,0,0.4-0.1,0.6-0.1
		c0.4,0,0.8,0,1.2,0l0.6,0.1l0.6,0.1c0.2,0.1,0.4,0.1,0.6,0.2l0.6,0.3c0.2,0.1,0.3,0.2,0.5,0.3c0.2,0.1,0.3,0.2,0.5,0.4
		c0.3,0.3,0.6,0.5,0.9,0.9c0.1,0.2,0.2,0.3,0.4,0.5c0.2,0.3,0.4,0.7,0.6,1.1c0.1,0.2,0.2,0.4,0.2,0.6c0.1,0.2,0.1,0.4,0.2,0.6
		s0.1,0.4,0.1,0.6s0,0.4,0,0.6s0,0.4,0,0.6s0,0.4-0.1,0.6s-0.1,0.4-0.2,0.6s-0.1,0.4-0.2,0.6c-0.2,0.4-0.3,0.7-0.6,1.1
		c-0.1,0.2-0.2,0.3-0.4,0.5c-0.3,0.3-0.5,0.6-0.9,0.9c-0.2,0.1-0.3,0.2-0.5,0.4c-0.2,0.1-0.3,0.2-0.5,0.3l-0.6,0.3
		c-0.2,0.1-0.4,0.1-0.6,0.2c-0.2,0.1-0.4,0.1-0.6,0.1l-0.6,0.1c-0.2,0-0.4,0-0.6,0h-0.6c-0.2,0-0.4,0-0.6-0.1
		c-0.2,0-0.4-0.1-0.6-0.1c-0.2-0.1-0.4-0.1-0.6-0.2L98.3,130.4z M107.2,156.8c-0.6,0.2-1.3,0.3-1.9,0.3c-3.4,0-6.2-2.8-6.2-6.2
		s2.8-6.2,6.2-6.2s6.2,2.8,6.2,6.2C111.4,153.6,109.7,156,107.2,156.8z M120.8,179.3c-2.8,2-6.6,1.4-8.6-1.4s-1.4-6.6,1.4-8.6
		s6.6-1.4,8.6,1.4C124.2,173.4,123.6,177.2,120.8,179.3C120.9,179.2,120.8,179.3,120.8,179.3L120.8,179.3z M122.2,79.4L122.2,79.4
		c-1.2,1.6-3,2.6-5,2.6c-1.3,0-2.6-0.4-3.6-1.2c-2.8-2-3.4-5.9-1.4-8.6c2-2.8,5.9-3.4,8.6-1.4C123.6,72.7,124.2,76.6,122.2,79.4
		L122.2,79.4z M140.7,196.4c-2,2.8-5.9,3.4-8.6,1.4c-2.8-2-3.4-5.9-1.4-8.6c2-2.8,5.9-3.4,8.6-1.4
		C142.1,189.8,142.7,193.7,140.7,196.4L140.7,196.4z M139.4,62.2c-2.8,2-6.6,1.4-8.6-1.4s-1.4-6.6,1.4-8.6c2.8-2,6.6-1.4,8.6,1.4
		C142.7,56.3,142.2,60.1,139.4,62.2L139.4,62.2z M165,206.6c-0.8,2.5-3.2,4.3-5.9,4.3c-0.6,0-1.3-0.1-1.9-0.3c-3.2-1.1-5-4.5-4-7.8
		c1.1-3.2,4.5-5,7.8-4C164.3,199.9,166,203.4,165,206.6L165,206.6z M161,51.1c-0.6,0.2-1.3,0.3-1.9,0.3c-3.4,0-6.2-2.7-6.2-6.2
		c0-3.4,2.7-6.2,6.2-6.2c3.4,0,6.2,2.7,6.2,6.2C165.3,47.9,163.6,50.3,161,51.1z M191.1,209.4c0,0.2,0,0.4-0.1,0.6
		c0,0.2-0.1,0.4-0.1,0.6c-0.1,0.2-0.1,0.4-0.2,0.6c-0.1,0.2-0.2,0.4-0.3,0.6c-0.1,0.2-0.2,0.4-0.3,0.5c-0.1,0.2-0.2,0.3-0.4,0.5
		c-0.1,0.2-0.3,0.3-0.4,0.4c-0.1,0.1-0.3,0.3-0.4,0.4l-0.5,0.4c-0.2,0.1-0.3,0.2-0.5,0.3l-0.5,0.3l-0.6,0.2l-0.6,0.1l-0.6,0.1
		c-0.2,0-0.4,0-0.6,0s-0.4,0-0.6,0l-0.6-0.1c-0.2,0-0.4-0.1-0.6-0.1l-0.6-0.2l-0.5-0.3c-0.2-0.1-0.4-0.2-0.5-0.3l-0.5-0.4
		c-0.2-0.1-0.3-0.3-0.4-0.4c-0.1-0.1-0.3-0.3-0.4-0.4c-0.1-0.2-0.2-0.3-0.4-0.5c-0.1-0.2-0.2-0.3-0.3-0.5s-0.2-0.4-0.3-0.6
		c-0.1-0.2-0.1-0.4-0.2-0.6c-0.1-0.2-0.1-0.4-0.1-0.6c0-0.2-0.1-0.4-0.1-0.6c0-0.2,0-0.4,0-0.6s0-0.4,0-0.6s0.1-0.4,0.1-0.6
		c0-0.2,0.1-0.4,0.1-0.6c0.1-0.2,0.1-0.4,0.2-0.6s0.2-0.4,0.3-0.6s0.2-0.4,0.3-0.5c0.1-0.2,0.2-0.3,0.4-0.5c0.1-0.2,0.3-0.3,0.4-0.4
		c0.1-0.1,0.3-0.3,0.4-0.4c0.1-0.1,0.3-0.2,0.5-0.4c0.3-0.2,0.7-0.4,1.1-0.6c0.2-0.1,0.4-0.2,0.6-0.2c0.2-0.1,0.4-0.1,0.6-0.1
		l0.6-0.1c0.4,0,0.8,0,1.2,0l0.6,0.1l0.6,0.1c0.2,0.1,0.4,0.1,0.6,0.2c0.4,0.2,0.7,0.3,1.1,0.6c0.2,0.1,0.3,0.2,0.5,0.4
		c0.2,0.1,0.3,0.3,0.4,0.4c0.1,0.1,0.3,0.3,0.4,0.4c0.1,0.2,0.2,0.3,0.4,0.5c0.1,0.2,0.2,0.4,0.3,0.5s0.2,0.4,0.3,0.6
		s0.1,0.4,0.2,0.6c0.1,0.2,0.1,0.4,0.1,0.6c0,0.2,0.1,0.4,0.1,0.6c0,0.2,0,0.4,0,0.6S191.2,209.2,191.1,209.4z M189.4,45.5
		c-0.1,0.1-0.3,0.3-0.4,0.4c-0.1,0.1-0.3,0.2-0.5,0.4c-0.3,0.2-0.7,0.4-1.1,0.6l-0.6,0.2l-0.6,0.2l-0.6,0.1c-0.2,0-0.4,0-0.6,0
		s-0.4,0-0.6,0l-0.6-0.1c-0.2,0-0.4-0.1-0.6-0.2c-0.2-0.1-0.4-0.1-0.6-0.2c-0.4-0.2-0.7-0.3-1.1-0.6c-0.2-0.1-0.3-0.2-0.5-0.4
		c-0.2-0.1-0.3-0.3-0.4-0.4c-1.2-1.2-1.8-2.7-1.8-4.4c0-0.2,0-0.4,0-0.6c0-0.2,0-0.4,0.1-0.6c0-0.2,0.1-0.4,0.1-0.6
		c0.1-0.2,0.1-0.4,0.2-0.6c0.1-0.2,0.2-0.4,0.3-0.5c0.1-0.2,0.2-0.4,0.3-0.5c0.1-0.2,0.2-0.3,0.4-0.5c0.1-0.2,0.3-0.3,0.4-0.5
		c0.1-0.1,0.3-0.3,0.4-0.4c0.1-0.1,0.3-0.2,0.5-0.4s0.3-0.2,0.5-0.3s0.4-0.2,0.5-0.3l0.6-0.2c0.2-0.1,0.4-0.1,0.6-0.2l0.6-0.1
		c0.4,0,0.8,0,1.2,0l0.6,0.1c0.2,0,0.4,0.1,0.6,0.2l0.6,0.2c0.2,0.1,0.4,0.2,0.5,0.3s0.4,0.2,0.5,0.3s0.3,0.2,0.5,0.4
		c0.2,0.1,0.3,0.3,0.4,0.4c0.1,0.1,0.3,0.3,0.4,0.5c0.1,0.2,0.2,0.3,0.4,0.5c0.1,0.2,0.2,0.3,0.3,0.5s0.2,0.4,0.3,0.5
		c0.1,0.2,0.1,0.4,0.2,0.6c0.1,0.2,0.1,0.4,0.1,0.6c0,0.2,0.1,0.4,0.1,0.6c0,0.2,0,0.4,0,0.6C191.1,42.8,190.5,44.4,189.4,45.5z
		 M212.8,210.6L212.8,210.6c-0.6,0.2-1.3,0.3-1.9,0.3c-3.4,0-6.2-2.8-6.2-6.2s2.8-6.2,6.2-6.2s6.2,2.8,6.2,6.2
		C217.1,207.4,215.4,209.8,212.8,210.6z M216.8,47.2c-0.8,2.5-3.2,4.3-5.9,4.3c-0.6,0-1.3-0.1-1.9-0.3c-3.2-1.1-5-4.5-4-7.8
		c1.1-3.2,4.5-5,7.8-4C216.1,40.4,217.9,43.9,216.8,47.2L216.8,47.2z M237.9,197.8c-2.8,2-6.6,1.4-8.6-1.4c-2-2.8-1.4-6.6,1.4-8.6
		c2.8-2,6.6-1.4,8.6,1.4l0,0C241.3,191.9,240.7,195.8,237.9,197.8L237.9,197.8L237.9,197.8z M239.3,60.8c-1.2,1.6-3,2.6-5,2.5
		c-1.3,0-2.6-0.4-3.6-1.2l0,0c-2.8-2-3.4-5.9-1.4-8.6s5.9-3.4,8.6-1.4S241.3,58,239.3,60.8L239.3,60.8L239.3,60.8z M257.8,177.9
		c-2,2.8-5.9,3.4-8.6,1.4s-3.4-5.9-1.4-8.6l0,0c2-2.8,5.9-3.4,8.6-1.4C259.2,171.3,259.8,175.1,257.8,177.9L257.8,177.9z
		 M270.6,152.8c-0.8,2.5-3.2,4.3-5.9,4.3c-0.6,0-1.3-0.1-1.9-0.3c-3.2-1.1-5-4.5-4-7.8s4.5-5,7.8-4
		C269.9,146.1,271.7,149.5,270.6,152.8L270.6,152.8z M275,125.6c0,0.2,0,0.4-0.1,0.6c0,0.2-0.1,0.4-0.1,0.6
		c-0.1,0.2-0.1,0.4-0.2,0.6s-0.2,0.4-0.3,0.5c-0.1,0.2-0.2,0.4-0.3,0.5s-0.2,0.3-0.4,0.5c-0.1,0.2-0.3,0.3-0.4,0.4
		c-0.1,0.1-0.3,0.3-0.5,0.4c-0.2,0.1-0.3,0.2-0.5,0.4c-0.2,0.1-0.3,0.2-0.5,0.3l-0.5,0.3c-0.2,0.1-0.4,0.1-0.6,0.2
		c-0.2,0.1-0.4,0.1-0.6,0.1s-0.4,0.1-0.6,0.1h-0.6c-0.2,0-0.4,0-0.6,0l-0.6-0.1c-0.2,0-0.4-0.1-0.6-0.1c-0.2-0.1-0.4-0.1-0.6-0.2
		l-0.5-0.3c-0.2-0.1-0.4-0.2-0.5-0.3c-0.2-0.1-0.3-0.2-0.5-0.4c-0.3-0.3-0.6-0.5-0.9-0.9c-0.1-0.2-0.2-0.3-0.4-0.5
		c-0.2-0.3-0.4-0.7-0.6-1.1c-0.1-0.2-0.2-0.4-0.2-0.6l-0.1-0.6c0-0.2-0.1-0.4-0.1-0.6s0-0.4,0-0.6s0-0.4,0-0.6s0-0.4,0.1-0.6
		l0.1-0.6c0.1-0.2,0.1-0.4,0.2-0.6c0.2-0.4,0.3-0.7,0.6-1.1c0.1-0.2,0.2-0.3,0.4-0.5c0.3-0.3,0.5-0.6,0.9-0.9
		c0.2-0.1,0.3-0.2,0.5-0.4c0.2-0.1,0.4-0.2,0.5-0.3l0.5-0.3c0.2-0.1,0.4-0.2,0.6-0.2l0.6-0.1l0.6-0.1c0.4,0,0.8,0,1.2,0
		c0.2,0,0.4,0,0.6,0.1l0.6,0.1c0.2,0.1,0.4,0.1,0.6,0.2l0.5,0.3c0.2,0.1,0.4,0.2,0.5,0.3c0.2,0.1,0.3,0.2,0.5,0.4
		c0.2,0.1,0.3,0.3,0.5,0.4c0.1,0.1,0.3,0.3,0.4,0.4c0.1,0.2,0.2,0.3,0.4,0.5s0.2,0.3,0.3,0.5s0.2,0.4,0.3,0.5s0.1,0.4,0.2,0.6
		s0.1,0.4,0.1,0.6s0.1,0.4,0.1,0.6s0,0.4,0,0.6S275,125.4,275,125.6z"/>
</g>
</svg>
