<?xml version="1.0" encoding="utf-8"?>
<!-- Generator: Adobe Illustrator 18.1.1, SVG Export Plug-In . SVG Version: 6.00 Build 0)  -->
<svg version="1.1" id="Layer_1" xmlns="http://www.w3.org/2000/svg" xmlns:xlink="http://www.w3.org/1999/xlink" x="0px" y="0px"
	 viewBox="0 0 325 250" enable-background="new 0 0 325 250" xml:space="preserve">
<g>
	<polygon points="75.4,0 0,74.6 0,174.6 75.4,250 325,250 325,0 	"/>
	<g>
		<ellipse fill="#FFFFFF" cx="247.4" cy="87.7" rx="4.4" ry="4.4"/>
		<ellipse fill="#FFFFFF" cx="101.3" cy="131.6" rx="4.4" ry="4.4"/>
		<ellipse fill="#FFFFFF" cx="89.2" cy="118.8" rx="4.4" ry="4.4"/>
		<ellipse fill="#FFFFFF" cx="140.8" cy="60.3" rx="4.4" ry="4.4"/>
		<ellipse fill="#FFFFFF" cx="136.7" cy="43.2" rx="4.4" ry="4.4"/>
		<ellipse fill="#FFFFFF" cx="180.4" cy="50.2" rx="4.4" ry="4.4"/>
		<ellipse fill="#FFFFFF" cx="179.5" cy="32.6" rx="4.4" ry="4.4"/>
		<ellipse fill="#FFFFFF" cx="253" cy="71.1" rx="4.4" ry="4.4"/>
		<ellipse fill="#FFFFFF" cx="215.8" cy="40.1" rx="4.4" ry="4.4"/>
		<ellipse fill="#FFFFFF" cx="213.9" cy="57.6" rx="4.4" ry="4.4"/>
		<path fill="#FFFFFF" d="M243.3,100.2c-3.9-1.2-8,1.1-9.2,5l-8.5,29c-0.4,2.3-2.4,4-4.8,4c-2.7,0-4.9-2.2-4.9-4.9
			c0-0.1,0-0.2,0-0.3l0,0l3.9-54.5c0.3-4.1-2.8-7.6-6.9-7.9c-4.1-0.3-7.6,2.8-7.9,6.9l-3.4,47.7c0,0,0,0.1,0,0.1
			c0,2.7-2.2,4.7-4.9,4.7c-2.7,0-4.9-1.4-4.9-5.1h0l-3.1-55.1c-0.2-4.1-3.7-7.1-7.8-6.9c-4.1,0.2-7.2,3.8-7,7.9l3,53.4
			c0,0,0,0.1,0,0.2l0,0.6h0c0,2.4-2.2,4.8-4.9,4.8c-2.3,0-4.3-1.7-4.8-3.8L154.1,78c-1.1-3.9-5.2-6.3-9.1-5.2
			c-3.9,1.1-6.3,5.2-5.2,9.1l16.2,58.8l0,0c0.6,1.5,0.9,3.2,0.9,4.9c0,7.7-6.2,13.9-13.9,13.9c-4.3,0-8.1-1.9-10.6-5l-0.1,0
			L121,141.6l0,0c-1.4-1.6-3.3-2.5-5.6-2.5c-4.1,0-7.4,3.3-7.4,7.4c0,1.9,0.7,3.6,1.8,4.9l0,0l48,54.6c6.8,9.1,17.6,14.9,29.8,14.9
			c18.1,0,33.1-12.8,36.6-29.9l24-81.6C249.5,105.5,247.2,101.4,243.3,100.2z"/>
	</g>
</g>
</svg>
