<svg xmlns="http://www.w3.org/2000/svg" viewBox="0 0 325 250"><title>LC-Label-</title><g id="Content"><path d="M75,0,0,75V175l75,75H325V0ZM229,37.32a4.33,4.33,0,1,1-4.32,4.32A4.32,4.32,0,0,1,229,37.32Zm-1.8,17.3a4.33,4.33,0,1,1-4.32,4.32A4.31,4.31,0,0,1,227.24,54.62ZM193.25,30a4.33,4.33,0,1,1-4.32,4.32A4.33,4.33,0,0,1,193.25,30Zm5.26,21.63a4.32,4.32,0,1,1-4.32-4.33A4.32,4.32,0,0,1,198.51,51.63Zm-39.08,10a4.32,4.32,0,1,1-4.32-4.32A4.33,4.33,0,0,1,159.43,61.61ZM151,40.45a4.33,4.33,0,1,1-4.32,4.32A4.31,4.31,0,0,1,151,40.45Zm-46.79,83.18a4.33,4.33,0,1,1,4.31-4.32A4.32,4.32,0,0,1,104.24,123.63Zm11.91,12.64a4.33,4.33,0,1,1,4.32-4.32A4.32,4.32,0,0,1,116.15,136.27Zm145-26.23-23.7,80.45a36.85,36.85,0,0,1-65.56,14.81l-47.3-53.84h0a7.31,7.31,0,0,1,5.5-12.12,7.23,7.23,0,0,1,5.49,2.5h0l11.23,12.87.06,0A13.67,13.67,0,0,0,171,145.89a13.47,13.47,0,0,0-.89-4.85h0l-16-58a7.26,7.26,0,0,1,5.1-8.94,7.37,7.37,0,0,1,9,5.21l13,47.44c.49,2.15,2.4,4.18,4.69,4.18,2.64,0,4.78-3.92,4.81-3.92h0l0-1.3v-.88l-2.92-52.54a7.18,7.18,0,0,1,6.88-7.57,7.54,7.54,0,0,1,7.69,7.18l3,55.11h0a4.63,4.63,0,0,0,4.82,4.21c2.66,0,4.81-2.72,4.81-5.39a.62.62,0,0,0,0-.13l3.35-47a7.3,7.3,0,1,1,14.57,1l-3.83,53.72h0a2.45,2.45,0,0,0,0,.27,4.82,4.82,0,0,0,9.56.84l8.41-28.63a7.3,7.3,0,1,1,14,4.13ZM260.27,93a4.33,4.33,0,1,1,4.32-4.32A4.32,4.32,0,0,1,260.27,93Zm5.48-16.35a4.33,4.33,0,1,1,4.32-4.33A4.32,4.32,0,0,1,265.75,76.63Z"/></g></svg>