<?xml version="1.0" encoding="utf-8"?>
<!-- Generator: Adobe Illustrator 18.1.1, SVG Export Plug-In . SVG Version: 6.00 Build 0)  -->
<svg version="1.1" id="Layer_1" xmlns="http://www.w3.org/2000/svg" xmlns:xlink="http://www.w3.org/1999/xlink" x="0px" y="0px"
	 viewBox="0 0 325 250" enable-background="new 0 0 325 250" xml:space="preserve">
<g>
	<polygon points="75,0 0,75 0,175 75,250 325,250 325,0 	"/>
	<g>
		<path fill="#FFFFFF" d="M124.1,102c14.1,0,25.5-11.4,25.5-25.5c0-14.1-11.4-25.5-25.5-25.5C110,51,98.6,62.4,98.6,76.5
			C98.6,90.6,110,102,124.1,102z"/>
		<path fill="#FFFFFF" d="M226,102c14.1,0,25.5-11.4,25.5-25.5C251.5,62.4,240,51,226,51c-14.1,0-25.5,11.4-25.5,25.5
			C200.5,90.6,211.9,102,226,102z"/>
		<polygon fill="#FFFFFF" points="226,105 200.5,150.5 219.4,150.5 219.4,139.5 243.4,157.8 219.4,176.2 219.4,165.2 192.2,165.2 
			175,196 157.8,165.2 130.6,165.2 130.6,176.2 106.6,157.9 130.6,139.5 130.6,150.5 149.5,150.5 124.1,105 71.4,199 173.3,199 
			176.7,199 278.6,199 		"/>
		<polygon fill="#FFFFFF" points="192.2,165.2 200.5,150.5 149.5,150.5 157.8,165.2 		"/>
	</g>
</g>
</svg>
