<svg xmlns="http://www.w3.org/2000/svg" viewBox="0 0 325 250"><title>LC-Label-</title><g id="Content"><polygon points="199 175.75 228.63 175.75 228.63 189.75 249.63 168.75 228.63 147.75 228.63 161.75 207.08 161.75 199 175.75"/><polygon points="171 175.75 185 200 199 175.75 171 175.75"/><polygon points="141.37 147.75 120.37 168.75 141.37 189.75 141.37 175.75 171 175.75 162.92 161.75 141.37 161.75 141.37 147.75"/><path d="M325,0H75L0,75V175l75,75H325ZM239.13,50a23.44,23.44,0,1,1-23.44,23.44A23.43,23.43,0,0,1,239.13,50ZM130.87,50a23.44,23.44,0,1,1-23.43,23.44A23.43,23.43,0,0,1,130.87,50ZM185,200H76.75l54.12-93.75,32,55.5h44.16l32-55.5L293.25,200Z"/></g></svg>